<svg width="92" height="92" viewBox="0 0 92 92" fill="none" xmlns="http://www.w3.org/2000/svg">
<path id="Vector" d="M42.4849 6.23067C43.5567 4.3725 44.6234 2.5118 45.7053 0.658691C46.7796 2.5156 47.8476 4.37629 48.9257 6.23067C55.062 6.68573 61.0731 8.63618 66.3449 11.8052C70.1252 14.083 73.5352 16.9815 76.3752 20.3629C81.7367 26.6882 85.0405 34.7188 85.6763 42.987C87.5317 44.0501 89.3808 45.1271 91.2362 46.1914C89.3883 47.2773 87.5241 48.3353 85.6725 49.4135C85.2756 54.495 83.8916 59.4969 81.6141 64.0564C77.4242 72.518 70.1454 79.4008 61.4523 83.0894C57.4786 84.7946 53.2217 85.8299 48.9131 86.1775C47.8375 88.0293 46.786 89.8951 45.6914 91.7356C44.6398 89.8749 43.5516 88.0357 42.4975 86.1775C38.0587 85.821 33.6755 84.7327 29.5981 82.9364C28.855 82.6419 28.089 82.3941 27.404 81.9732C26.312 81.278 25.1568 80.6889 24.0774 79.9735C16.3196 75.0247 10.3615 67.3253 7.54555 58.5628C6.58878 55.596 5.97578 52.5193 5.73059 49.4123C3.87391 48.3403 2.02103 47.2634 0.159302 46.199C2.01598 45.1296 3.86759 44.0526 5.7268 42.9883C6.16031 37.5743 7.69216 32.2463 10.2465 27.4517C14.5703 19.2315 21.8466 12.6154 30.4437 9.09883C34.2746 7.52633 38.3519 6.53278 42.4849 6.23067ZM32.2308 9.95333C23.721 13.0933 16.4144 19.3529 11.997 27.2735C17.0248 23.5888 22.0324 19.8762 27.0577 16.1877C27.3699 15.9159 27.8426 15.9955 28.1017 16.2989C33.6085 21.6282 39.1166 26.9575 44.6184 32.2918C50.3072 28.3985 56.0011 24.5128 61.6937 20.6233C61.9642 20.4122 62.3421 20.3844 62.6302 20.5816C68.9915 24.4331 75.3502 28.2923 81.7139 32.1401C81.039 30.3818 80.2187 28.6804 79.2834 27.046C74.9179 19.3617 67.8375 13.2589 59.5792 10.1075C50.8861 6.73377 40.9606 6.68321 32.2308 9.95333ZM10.6851 30.0431C10.5587 30.1265 10.474 30.2529 10.4159 30.3919C8.20784 35.3243 7.03999 40.7256 7.05769 46.132C9.25182 46.132 11.4472 46.132 13.6426 46.132C13.6426 44.4496 13.6439 42.7671 13.6414 41.0846C12.8919 41.6775 12.1436 42.2703 11.3954 42.8644C11.1616 43.0566 10.8368 43.2436 10.5334 43.0932C10.0557 42.9365 9.89515 42.2286 10.292 41.905C11.3676 40.9999 12.5064 40.1694 13.5857 39.2694C13.7159 38.961 13.6136 38.5793 13.6426 38.2443C12.9045 38.8308 12.1626 39.4123 11.427 40.0026C11.2336 40.153 11.0188 40.33 10.7546 40.2971C10.3375 40.3009 9.99879 39.8699 10.0746 39.4641C10.1012 39.2265 10.2832 39.0545 10.4576 38.9117C11.5218 38.0774 12.5822 37.2368 13.6414 36.395C13.6426 36.0663 13.6439 35.7376 13.6426 35.4103C12.8072 36.0423 12.0109 36.7261 11.1666 37.3455C10.747 37.6489 10.0936 37.3114 10.0696 36.8033C10.0102 36.4341 10.316 36.1801 10.5739 35.9791C11.5218 35.2447 12.4495 34.485 13.4012 33.7569C13.8625 33.4636 13.5352 32.829 13.6666 32.3879C13.7361 31.7723 14.631 31.565 14.9685 32.0795C15.2187 32.5257 15.0696 33.0692 15.1087 33.5571C16.1578 34.3699 17.1904 35.2029 18.2369 36.0195C18.4808 36.2066 18.7425 36.4594 18.6869 36.7995C18.6692 37.3253 17.9829 37.6628 17.5645 37.3266C16.7316 36.7047 15.9366 36.0334 15.1087 35.4039C15.1062 35.7301 15.1062 36.0575 15.1062 36.3848C16.2033 37.2646 17.3168 38.1229 18.4101 39.0078C18.7311 39.2391 18.7854 39.7409 18.5289 40.0392C18.3026 40.3401 17.8223 40.3843 17.5329 40.1517C16.7164 39.5235 15.9214 38.8675 15.105 38.2392C15.105 38.5717 15.1075 38.9054 15.1087 39.2378C16.1388 40.0317 17.1474 40.8533 18.175 41.6509C18.4012 41.8367 18.6919 42.0377 18.6881 42.3664C18.7614 42.9314 18.0271 43.3802 17.5721 43.0123C16.7367 42.3866 15.9315 41.7204 15.11 41.0758C15.1012 42.7608 15.1087 44.4458 15.1062 46.1308C17.6467 46.1333 20.1871 46.132 22.7276 46.132C22.725 45.1562 22.7301 44.1803 22.7238 43.2057C21.9439 43.8188 21.1679 44.4369 20.3893 45.0525C20.1239 45.2927 19.6904 45.3433 19.4085 45.1031C19.037 44.8376 19.0521 44.2246 19.4262 43.9679C20.4563 43.14 21.5016 42.331 22.5342 41.5068C22.84 41.3387 22.6947 40.9608 22.7288 40.6827C22.0021 41.2578 21.2715 41.8279 20.5511 42.4094C20.3502 42.5623 20.1378 42.7532 19.8661 42.7342C19.4225 42.7684 19.0471 42.312 19.1507 41.8822C19.1848 41.6332 19.3909 41.4689 19.5741 41.3223C20.6295 40.5057 21.6646 39.6638 22.7187 38.846C22.7212 38.6172 22.7225 38.3871 22.725 38.1583C21.9806 38.76 21.2222 39.3453 20.4765 39.947C20.2465 40.1341 19.9356 40.3325 19.6323 40.1909C19.1267 40.0494 18.9586 39.3137 19.3694 38.9787C20.4778 38.0825 21.6039 37.2052 22.7212 36.3204C22.7617 35.6871 22.6568 35.0386 22.7844 34.4154C22.9892 33.8175 23.9283 33.8314 24.1267 34.4256C24.2468 35.0449 24.152 35.6858 24.181 36.3128C25.2768 37.1875 26.3815 38.0521 27.4786 38.9269C27.7819 39.1468 27.8679 39.6082 27.6416 39.9141C27.4015 40.2908 26.8264 40.306 26.5155 40.0127C25.7394 39.3946 24.9571 38.7866 24.1874 38.1609C24.1848 38.3846 24.181 38.6083 24.1798 38.8333C25.2554 39.6904 26.3373 40.5398 27.4154 41.3931C27.6783 41.5789 27.8464 41.9126 27.7402 42.2349C27.6176 42.7064 26.9768 42.8897 26.6027 42.5939C25.7913 41.9657 24.9899 41.3248 24.1874 40.6852C24.1823 40.9051 24.1798 41.1251 24.176 41.3463C25.2503 42.2109 26.3385 43.0553 27.4154 43.9149C27.6403 44.0817 27.8173 44.3459 27.7629 44.6392C27.7187 45.1726 27.0122 45.4545 26.6052 45.1145C25.79 44.49 24.9937 43.8403 24.1848 43.2057C24.1773 44.1816 24.1823 45.1562 24.181 46.132C30.9341 46.1244 37.6884 46.1472 44.4414 46.1206C41.8264 45.0057 39.468 43.3347 37.4444 41.3438C35.1618 39.076 33.3115 36.4025 31.8251 33.5559C29.3264 28.7221 27.7667 23.4358 26.9515 18.0673C21.5243 22.0517 16.1123 26.0575 10.6851 30.0431ZM28.5251 18.7297C29.4692 24.3383 31.2437 29.8623 34.1634 34.7656C35.9581 37.7462 38.2407 40.4703 41.063 42.5282C43.2508 44.1323 45.7571 45.3041 48.3962 45.9437C48.7766 46.0372 49.1608 46.1421 49.5577 46.1345C51.9857 46.127 54.4136 46.1383 56.8428 46.1282C47.3926 37.0068 37.9702 27.8562 28.5251 18.7297ZM62.4621 22.1768C61.513 24.0994 60.8128 26.1788 60.6838 28.3315C60.5827 30.0127 60.9252 31.7736 61.9338 33.1539C62.5582 33.9768 62.9412 35.0197 62.7857 36.0612C62.6062 37.3974 61.6381 38.4554 60.6131 39.253C58.8689 40.5714 56.8239 41.4247 54.7637 42.1148C56.1616 43.4459 57.5342 44.8035 58.9321 46.1358C61.7013 46.127 64.4705 46.1345 67.2397 46.132C67.2397 45.1536 67.241 44.1765 67.2397 43.1981C66.5003 43.772 65.766 44.3548 65.0355 44.94C64.8332 45.0917 64.6209 45.2788 64.3504 45.2611C63.9624 45.2687 63.6072 44.9122 63.6376 44.5203C63.6262 44.193 63.9068 43.9831 64.1318 43.7973C65.1707 42.9845 66.202 42.1616 67.2397 41.3463C67.2384 41.1226 67.2384 40.8988 67.2384 40.6763C66.4257 41.3071 65.6282 41.9594 64.813 42.5863C64.5046 42.8303 63.9927 42.7759 63.769 42.4422C63.5377 42.1363 63.6224 41.6724 63.9295 41.4487C65.0266 40.5651 66.1401 39.7017 67.241 38.822C67.2397 38.597 67.2372 38.3732 67.2372 38.1495C66.4851 38.755 65.7217 39.3478 64.9697 39.952C64.7625 40.1138 64.4996 40.3009 64.224 40.2187C63.831 40.1454 63.5516 39.7232 63.6578 39.3339C63.7046 39.1001 63.903 38.9458 64.0762 38.8017C65.1353 37.9738 66.1869 37.1357 67.241 36.3002C67.2662 35.6744 67.1816 35.0399 67.2852 34.4205C67.471 33.8175 68.4265 33.8289 68.6237 34.4192C68.74 35.0336 68.6515 35.6694 68.6704 36.2926C69.7561 37.1888 70.8785 38.0408 71.9743 38.9243C72.2751 39.1481 72.3623 39.612 72.1348 39.9179C71.8972 40.2984 71.3158 40.3009 71.0099 40.0076C70.2314 39.3895 69.4503 38.7765 68.6742 38.1545C68.7046 38.4364 68.5643 38.8169 68.8714 38.9863C69.9015 39.8105 70.9442 40.6169 71.973 41.4424C72.2435 41.6471 72.3471 42.0428 72.1904 42.3499C72.0059 42.7544 71.4308 42.8568 71.0933 42.5863C70.2819 41.9594 69.4819 41.3172 68.6793 40.6789C68.6768 40.9001 68.6755 41.1225 68.6742 41.345C69.77 42.2299 70.8873 43.0882 71.9831 43.973C72.3143 44.2195 72.3648 44.7567 72.0628 45.0449C71.8201 45.3129 71.3701 45.3331 71.0946 45.1056C70.2794 44.4824 69.4857 43.8327 68.678 43.2007C68.6742 44.1778 68.6755 45.1549 68.6768 46.132C71.2172 46.132 73.7564 46.132 76.2968 46.1308C76.2943 44.4458 76.3006 42.7608 76.2943 41.0745C75.5524 41.6712 74.8029 42.2577 74.0585 42.8505C73.8461 43.0035 73.5946 43.2108 73.314 43.1286C72.9121 43.078 72.6328 42.6432 72.7326 42.2564C72.7705 42.0049 72.9867 41.8494 73.1699 41.7002C74.2164 40.8824 75.2529 40.0506 76.2968 39.2302C76.2956 38.8978 76.2956 38.5666 76.2968 38.2354C75.517 38.851 74.7397 39.4704 73.9599 40.0873C73.6831 40.3502 73.2028 40.3805 72.9273 40.0999C72.6214 39.8054 72.6505 39.2543 72.998 39.004C74.0736 38.1217 75.1985 37.295 76.2602 36.3962C76.3385 36.0726 76.2842 35.7313 76.2956 35.4014C75.5221 36.0031 74.7587 36.6187 73.9877 37.2242C73.7475 37.4277 73.4 37.5453 73.1055 37.3822C72.6606 37.1774 72.5746 36.4936 72.9664 36.1927C74.0648 35.299 75.1897 34.4344 76.2981 33.5496C76.3057 33.1223 76.2526 32.6875 76.3436 32.2678C76.5041 31.7066 77.3572 31.6092 77.6366 32.1224C77.8426 32.5611 77.7149 33.073 77.744 33.5432C78.7994 34.3737 79.8497 35.2105 80.905 36.041C81.0959 36.2091 81.3411 36.3924 81.3373 36.6768C81.4194 37.2381 80.699 37.6805 80.2377 37.3468C79.3883 36.7236 78.5908 36.0334 77.7491 35.4001C77.7453 35.7288 77.7465 36.0587 77.7516 36.3886C78.8423 37.2495 79.9318 38.1141 81.0238 38.9749C81.3183 39.1835 81.4384 39.6107 81.2488 39.9293C81.0478 40.335 80.4525 40.4172 80.1277 40.1164C79.3315 39.4906 78.5403 38.8599 77.7478 38.2316C77.7465 38.5628 77.7453 38.8953 77.7453 39.2277C78.8032 40.0544 79.8522 40.8925 80.9076 41.723C81.1477 41.9075 81.3992 42.1629 81.336 42.4978C81.2981 43.0376 80.5827 43.3511 80.172 42.9845C79.358 42.3563 78.5567 41.7103 77.7516 41.072C77.7402 42.7582 77.7491 44.4458 77.7478 46.132C79.952 46.1308 82.1575 46.1333 84.3631 46.132C84.3416 42.1262 83.7286 38.1217 82.4925 34.3093C75.8153 30.2655 69.1419 26.2167 62.4621 22.1768ZM45.6851 33.3182C48.3203 35.8704 50.953 38.4263 53.5959 40.9721C55.6295 40.3262 57.6593 39.5589 59.4212 38.334C60.196 37.7652 60.9859 37.0902 61.2918 36.1459C61.5408 35.4115 61.2235 34.6379 60.79 34.0438C59.7953 32.69 59.2872 31.0176 59.2354 29.3466C59.1444 27.2634 59.6538 25.208 60.3843 23.2715C55.4854 26.6212 50.5827 29.9659 45.6851 33.3182ZM7.07412 47.5832C7.13352 48.8712 7.22579 50.1593 7.39894 51.4386C8.56299 52.3891 9.92927 53.3688 11.5155 53.2196C13.496 53.0882 15.0127 51.6749 16.7442 50.8798C18.6957 49.9748 20.9897 49.8572 23.0309 50.5322C24.4995 50.9949 25.7281 51.9543 26.9958 52.7936C28.1244 53.5521 29.473 54.2005 30.8696 53.9275C33.0296 53.5293 34.7637 52.0491 36.8049 51.3248C39.3681 50.359 42.3497 50.6409 44.703 52.0364C46.2627 52.8821 47.7111 54.1891 49.5678 54.2625C51.3588 54.2182 52.7162 52.8998 54.1874 52.0529C56.7632 50.426 60.2111 50.3173 62.8818 51.7849C63.9965 52.3815 64.9849 53.1969 66.1338 53.7316C67.0147 54.1626 68.0789 54.2574 68.9839 53.8428C70.5676 53.1514 71.7405 51.8039 73.2748 51.0252C74.8699 50.1441 76.815 50.1378 78.5226 50.6763C80.4488 51.2565 82.0703 52.4865 83.6224 53.7202C84.0281 51.6989 84.2468 49.6411 84.334 47.5819C58.5807 47.5832 32.8274 47.5806 7.07412 47.5832ZM18.8335 51.6989C16.4851 52.1704 14.7726 54.1525 12.3977 54.5545C10.7761 54.9248 9.07993 54.4458 7.73893 53.5078C8.31148 56.5087 9.25688 59.4337 10.5081 62.2197C12.155 61.9214 13.3962 60.713 14.837 59.9596C17.6151 58.4364 21.1919 58.5514 23.8815 60.2175C25.493 61.1326 26.9389 62.4966 28.8259 62.8012C30.7521 63.0452 32.3408 61.7331 33.9384 60.8824C36.7961 59.234 40.4791 59.1455 43.4126 60.6536C44.7094 61.3033 45.8128 62.2968 47.1689 62.8353C47.9311 63.1501 48.8095 63.1741 49.5817 62.8796C51.1275 62.2981 52.3446 61.1213 53.8284 60.4197C56.6924 59.0482 60.2807 59.3301 62.8792 61.1655C64.0332 61.9176 65.1593 62.9984 66.6267 62.9718C68.0903 62.8758 69.219 61.8203 70.3514 61.005C71.5509 60.0847 72.902 59.2378 74.4465 59.1177C76.9187 58.8813 79.2923 60.0076 81.2235 61.46C82.0868 59.4489 82.787 57.367 83.2887 55.2358C82.0071 54.3863 80.8823 53.2992 79.4831 52.6318C77.9488 51.8481 76.0769 51.4044 74.4237 52.0858C72.8401 52.7519 71.6659 54.0779 70.1631 54.8831C69.085 55.4987 67.7731 55.7402 66.5635 55.414C64.4275 54.8844 62.9096 53.0705 60.7988 52.4839C59.2948 52.039 57.6492 52.1047 56.1869 52.671C54.8509 53.1766 53.764 54.1361 52.5253 54.8224C51.3752 55.5012 49.9975 55.8918 48.6654 55.6175C46.9086 55.2864 45.4829 54.1411 43.9611 53.2816C42.5696 52.4713 40.929 52.0756 39.3213 52.2248C37.7491 52.3386 36.3221 53.0641 34.9634 53.8074C33.3191 54.7036 31.5193 55.6239 29.5855 55.3963C27.5468 55.1865 25.9632 53.7733 24.291 52.7329C22.7023 51.685 20.6965 51.2957 18.8335 51.6989ZM17.0274 60.6232C14.8699 61.1857 13.3342 63.0414 11.1591 63.5685C12.1866 65.5859 13.381 67.5187 14.7308 69.3364C16.9907 68.3707 19.65 68.3896 21.8946 69.3895C23.5769 70.1151 24.9154 71.4411 26.6014 72.1565C27.4672 72.5383 28.4594 72.6141 29.3706 72.3512C31.2159 71.838 32.7516 70.6232 34.5311 69.9495C37.0691 68.9698 40.019 69.119 42.4482 70.3413C43.4619 70.8482 44.3428 71.5713 45.316 72.1451C46.1881 72.7013 47.2751 72.9971 48.2887 72.6874C49.7283 72.2564 50.8823 71.2439 52.1752 70.5221C55.1113 68.8055 59.0104 68.9079 61.8454 70.7888C62.7718 71.3753 63.6211 72.1072 64.6512 72.5142C65.4513 72.8315 66.3828 72.7418 67.1285 72.3196C68.7071 71.4625 69.9002 70 71.5964 69.3389C73.2205 68.6639 75.0582 68.7777 76.7139 69.2833C78.2142 67.2545 79.5248 65.0879 80.6156 62.8126C78.9043 61.4904 76.8176 60.3616 74.588 60.5562C72.9285 60.7003 71.652 61.8671 70.3679 62.805C69.1507 63.7227 67.7036 64.5696 66.1186 64.399C64.5173 64.2511 63.2559 63.1678 61.9768 62.3057C59.9242 60.8899 57.1588 60.6043 54.8547 61.5498C53.3279 62.1704 52.1133 63.3498 50.6118 64.0223C49.5488 64.5228 48.3115 64.6935 47.1727 64.3585C45.1454 63.8036 43.6755 62.1287 41.6848 61.4916C39.8762 60.8634 37.8565 60.8647 36.0516 61.5043C34.7511 61.9555 33.6376 62.7898 32.4204 63.4092C31.1502 64.0969 29.6512 64.5014 28.2154 64.1601C26.2058 63.7303 24.6474 62.3019 22.8982 61.3248C21.1414 60.3123 18.9725 60.0607 17.0274 60.6232ZM15.6687 70.5183C18.0587 73.4901 20.905 76.0928 24.0635 78.2291C24.8952 78.693 25.7533 79.1177 26.5256 79.6815C27.38 80.3097 28.3481 80.7458 29.2935 81.2135C30.2225 81.6989 31.3411 81.5675 32.2991 81.2401C34.0597 80.608 35.5751 79.4426 37.3509 78.8459C39.8699 77.975 42.7377 78.2164 45.0911 79.4628C46.202 80.048 47.1575 80.8924 48.2875 81.4461C49.013 81.8076 49.8623 81.9682 50.6548 81.7406C52.1664 81.3235 53.3583 80.2452 54.7132 79.507C57.7187 77.7702 61.6924 77.9712 64.5312 79.9583C68.8284 77.5692 72.653 74.3383 75.7445 70.517C74.5071 70.225 73.1548 70.2086 71.9806 70.7471C70.5385 71.4158 69.4692 72.6482 68.1017 73.4383C67.1373 74.0147 65.9707 74.3244 64.8547 74.0741C63.3633 73.7631 62.1955 72.7266 60.9429 71.9328C58.52 70.378 55.2175 70.3502 52.7655 71.8569C51.1211 72.8277 49.5413 74.1866 47.5418 74.2637C45.7028 74.3446 44.1886 73.1576 42.7427 72.1894C40.517 70.6637 37.5418 70.3236 35.0291 71.3071C33.4985 71.9176 32.1398 72.8859 30.5991 73.4737C29.3668 73.9578 27.9728 74.1221 26.6937 73.7214C24.5387 73.102 22.9778 71.3349 20.9037 70.5436C19.2316 69.9255 17.3459 69.9191 15.6687 70.5183ZM38.1143 80.1188C36.2096 80.7079 34.6133 81.9846 32.7276 82.6204C42.5215 86.1471 53.7412 85.4797 63.0246 80.7585C61.1881 79.6789 58.879 79.5032 56.8605 80.1378C55.4791 80.5613 54.3454 81.484 53.1194 82.2096C51.9427 82.9352 50.5549 83.4699 49.152 83.2347C47.6214 82.9971 46.3929 81.9909 45.134 81.1731C43.1042 79.8028 40.4563 79.4185 38.1143 80.1188Z" fill="white"/>
</svg>
