<svg width="420" height="420" viewBox="0 0 420 420" fill="none" xmlns="http://www.w3.org/2000/svg">
<path d="M394.655 195.422C387.668 104.465 315.109 31.8735 224.17 24.8863C219.361 16.6102 214.571 8.31483 209.801 0C204.975 8.29154 200.2 16.5889 195.432 24.8804C104.452 31.8327 31.8404 104.459 24.8832 195.445C16.5752 200.208 8.29632 205.018 0 209.798C8.31379 214.549 16.5926 219.359 24.8832 224.151C31.8695 315.142 104.47 387.769 195.467 394.692C200.189 403.001 205.05 411.229 209.754 419.555C214.651 411.322 219.361 402.978 224.17 394.686C315.091 387.711 387.668 315.131 394.655 224.174C402.939 219.359 411.276 214.619 419.544 209.763C411.23 205 402.951 200.179 394.655 195.422ZM372.589 278.576C355.532 319.122 324.018 351.883 284.166 370.498C244.314 389.112 198.968 392.252 156.932 379.307C114.895 366.362 79.1683 338.257 56.687 300.448C34.2058 262.639 26.5745 217.824 35.2748 174.704C43.9751 131.584 68.3862 93.2353 103.769 67.1043C139.151 40.9732 182.98 28.924 226.746 33.296C270.512 37.668 311.092 58.1493 340.608 90.7633C370.123 123.377 386.468 165.797 386.469 209.786C386.498 233.415 381.776 256.809 372.584 278.576H372.589Z" fill="#5A656A" fill-opacity="0.3"/>
<path d="M209.766 363.286C294.546 363.286 363.274 294.558 363.274 209.778C363.274 124.998 294.546 56.27 209.766 56.27C124.986 56.27 56.2582 124.998 56.2582 209.778C56.2582 294.558 124.986 363.286 209.766 363.286Z" fill="#5A656A" fill-opacity="0.3"/>
</svg>
