<svg width="850" height="850" viewBox="0 0 850 850" fill="none" xmlns="http://www.w3.org/2000/svg">
  <path
    d="M799.553 395.916C785.399 211.642 638.397 64.5743 454.158 50.4184C444.415 33.6516 434.711 16.8455 425.047 0C415.269 16.7983 405.597 33.6084 395.937 50.4066C211.615 64.4917 64.5073 211.63 50.4121 395.963C33.5806 405.612 16.808 415.356 0 425.041C16.8434 434.667 33.616 444.411 50.4121 454.12C64.5662 638.464 211.651 785.603 396.008 799.629C405.574 816.462 415.422 833.131 424.953 850C434.873 833.32 444.415 816.415 454.158 799.617C638.361 785.485 785.399 638.441 799.553 454.167C816.337 444.411 833.228 434.809 849.977 424.971C833.133 415.321 816.361 405.553 799.553 395.916ZM754.849 564.382C720.292 646.528 656.446 712.9 575.708 750.612C494.97 788.323 403.1 794.684 317.937 768.459C232.773 742.234 160.391 685.294 114.845 608.694C69.2994 532.095 53.8387 441.301 71.4652 353.942C89.0916 266.583 138.547 188.891 210.231 135.95C281.914 83.0099 370.709 58.5987 459.378 67.4562C548.046 76.3137 630.259 117.808 690.056 183.882C749.854 249.957 782.967 335.897 782.969 425.018C783.027 472.889 773.46 520.283 754.838 564.382H754.849Z"
    fill="#5A656A" fillOpacity="0.3" />
  <path
    d="M424.977 736C596.737 736 735.977 596.761 735.977 425C735.977 253.239 596.737 114 424.977 114C253.216 114 113.977 253.239 113.977 425C113.977 596.761 253.216 736 424.977 736Z"
    fill="#5A656A" fillOpacity="0.3" />
</svg>